# xmcd CD database file
#
# Track frame offsets:
#	150
#	71715
#	94561
#	118615
#	158557
#	212998
#	239986
#	325433
#	342157
#
# Disc length: 4734 seconds
#
# Revision: 0
# Processed by: cddbd v1.4PL0 Copyright (c) Steve Scherf et al.
# Submitted via: CDex 1.50
#
DISCID=86127c09
DTITLE=Various Artist - Jazz im Gartnerplatz
DYEAR=2000
DGENRE=Jazz
TTITLE0=White Line on a Black Grand - Consortium
TTITLE1=Caucasian Dance - David Gazarov
TTITLE2=Memories of Childhood - David Gazarov
TTITLE3=Pannonica - Simon Nabatov
TTITLE4=All Blues - Gazarov and Nabatov
TTITLE5=Danke, Hut Ab - Mangelsdorff - Dauner Quintet
TTITLE6=Wendekreis des Steinbocks - Mangelsdorff - Dauner Quintet
TTITLE7=Fever - Modern String Quartet
TTITLE8=Donna Lee - Modern String Quartet
EXTD=YEAR: 2000
EXTT0=
EXTT1=
EXTT2=
EXTT3=
EXTT4=
EXTT5=
EXTT6=
EXTT7=
EXTT8=
PLAYORDER=
